<?xml version="1.0" standalone="no"?><!DOCTYPE svg PUBLIC "-//W3C//DTD SVG 1.1//EN" "http://www.w3.org/Graphics/SVG/1.1/DTD/svg11.dtd"><svg t="1540020264715" class="icon" style="" viewBox="0 0 1024 1024" version="1.1" xmlns="http://www.w3.org/2000/svg" p-id="1604" xmlns:xlink="http://www.w3.org/1999/xlink" width="200" height="200"><defs><style type="text/css"></style></defs><path d="M837.66679121 632.47768086V311.81653542c0-69.12092864-56.09516948-125.21609813-125.26172251-125.21609814H311.55256581C242.43163717 186.60043728 186.33646768 242.69560677 186.33646768 311.81653542v400.85250287C186.33646768 781.79322582 242.39253057 837.88839531 311.55256581 837.88839531h400.85250289c61.58964783 0 112.84211576-44.53590811 123.30639212-103.11434716-33.21780413-14.37167823-177.16270834-76.53163075-252.14636922-112.31417656-57.07283467 69.12092864-116.8342486 110.6000036-206.9195777 110.6000036s-150.21173805-55.4824993-143.00634564-123.38460536c4.76448834-44.57501471 35.3360787-117.44040101 168.12582314-104.94258105 69.97801512 6.55361563 102.01284439 19.62174028 159.08893794 38.46786619 14.77252096-27.071549 27.02918351-56.86752498 36.34959161-88.57972474h-253.08492779v-25.07711201h125.21935701V384.5222364H316.60057706v-27.5994882h152.73737311V291.95363772s1.3817668-10.17749458 12.61839868-10.17749459h62.60967849v75.14660507h162.8333956v27.5994882h-162.8333956v45.02148182h132.82885105c-12.20777929 49.70449806-30.73127568 95.37775665-53.93778831 135.26975512 38.59170378 13.96757663 214.20970112 67.66420752 214.20970113 67.66420752zM366.67332899 690.07845473c-95.17570585 0-110.23826748-60.08404344-105.19025623-85.20352096 5.00564575-24.99238103 32.56602734-57.60077387 85.48704386-57.60077386 60.81729233 0 115.28301984 15.54813533 180.66274971 47.38091379-45.9176749 59.80377942-102.34199167 95.42338103-160.95953734 95.42338103z" fill="#009FE8" p-id="1605"></path></svg>