<?xml version="1.0" encoding="utf-8"?>
<!-- Generator: Adobe Illustrator 21.0.0, SVG Export Plug-In . SVG Version: 6.00 Build 0)  -->
<svg version="1.1" id="图层_1" xmlns="http://www.w3.org/2000/svg" xmlns:xlink="http://www.w3.org/1999/xlink" x="0px" y="0px"
	 viewBox="0 0 2000 2000" style="enable-background:new 0 0 2000 2000;" xml:space="preserve">
<style type="text/css">
	.st0{fill:none;stroke:#279D76;stroke-width:30;stroke-miterlimit:10;}
	.st1{fill:#279D76;}
</style>
<circle class="st0" cx="999.7" cy="1000.8" r="810.3"/>
<path class="st1" d="M999.7,249.7c-414.8,0-751.1,336.3-751.1,751.1s336.3,751.1,751.1,751.1s751.1-336.3,751.1-751.1
	S1414.6,249.7,999.7,249.7z M685.3,499c0-46.2,50-75.1,90-52l393,226.9c40,23.1,40,80.8,0,103.9l-393,226.9c-40,23.1-90-5.8-90-52
	V499z M1284.1,1260.8l-508.8,293.8c-40,23.1-90-5.8-90-52v-317.9c0-10.7,5.7-20.6,15-26L978.8,998c9.3-5.4,20.7-5.4,30,0
	l275.3,158.9C1324.1,1180,1324.1,1237.7,1284.1,1260.8z"/>
</svg>
