<?xml version="1.0" encoding="utf-8"?>
<!-- Generator: Adobe Illustrator 21.0.0, SVG Export Plug-In . SVG Version: 6.00 Build 0)  -->
<svg version="1.1" id="图层_1" xmlns="http://www.w3.org/2000/svg" xmlns:xlink="http://www.w3.org/1999/xlink" x="0px" y="0px"
	 viewBox="0 0 1000 1000" style="enable-background:new 0 0 1000 1000;" xml:space="preserve">
<style type="text/css">
	.st0{fill:#5ABF6A;}
	.st1{fill:#231815;}
	.st2{fill:none;}
</style>
<g>
	<g>
		<path class="st0" d="M548.7,141.2c-8.1,0-14.6,6.5-14.7,14.6v141.4c0,8.1,6.6,14.7,14.7,14.7h209.6c8.1,0,14.7-6.6,14.7-14.7
			V155.9c0-8.1-6.6-14.7-14.7-14.7H548.7L548.7,141.2z"/>
		<path class="st0" d="M824.2,243.6c-9.4,0-17.1-7.6-17.1-17.1s7.7-17.1,17.1-17.1h34.1c9.5,0,17.1,7.6,17.1,17.1
			s-7.7,17.1-17.1,17.1H824.2L824.2,243.6z"/>
		<path class="st0" d="M141.5,209.4c-9.4,0-17,7.6-17,17.1s7.7,17.1,17.1,17.1h341.3c9.5,0,17.1-7.6,17.1-17.1s-7.7-17.1-17.1-17.1
			H141.5L141.5,209.4z"/>
	</g>
	<g>
		<path class="st0" d="M758.4,414.2H548.8c-8.1,0-14.7,6.6-14.7,14.7v141.3c0,8.1,6.6,14.7,14.7,14.7h209.6
			c8.1,0,14.7-6.6,14.7-14.7V428.9C773,420.8,766.5,414.2,758.4,414.2L758.4,414.2z"/>
		<path class="st0" d="M482.9,482.5H141.6c-9.4,0-17.1,7.6-17.1,17.1c0,9.4,7.6,17.1,17.1,17.1h341.3c9.4,0,17.1-7.6,17.1-17.1
			S492.3,482.5,482.9,482.5L482.9,482.5z"/>
		<path class="st0" d="M858.4,516.6h-34.1c-9.4,0-17.1-7.6-17.1-17.1c0-9.4,7.6-17.1,17.1-17.1h34.1c9.4,0,17.1,7.6,17.1,17.1
			C875.4,509,867.8,516.6,858.4,516.6L858.4,516.6z"/>
	</g>
	<g>
		<path class="st0" d="M548.8,687.3c-8.1,0-14.7,6.6-14.7,14.7v141.3c0,8.1,6.6,14.7,14.7,14.7h209.6c8.1,0,14.7-6.6,14.7-14.7V702
			c0-8.1-6.6-14.7-14.7-14.7H548.8L548.8,687.3z"/>
		<path class="st0" d="M824.2,789.7c-9.4,0-17.1-7.6-17.1-17.1c0-9.4,7.6-17.1,17.1-17.1h34.1c9.4,0,17.1,7.6,17.1,17.1
			c0,9.4-7.6,17.1-17.1,17.1H824.2L824.2,789.7z"/>
		<path class="st0" d="M141.6,755.6c-9.4,0-17.1,7.6-17.1,17.1c0,9.4,7.6,17.1,17.1,17.1h341.3c9.4,0,17.1-7.6,17.1-17.1
			c0-9.4-7.6-17.1-17.1-17.1H141.6L141.6,755.6z"/>
	</g>
	<path class="st1" d="M858.4,755.6"/>
	<rect x="124.6" y="141.1" class="st2" width="750.9" height="717.8"/>
</g>
</svg>
