<?xml version="1.0" standalone="no"?><!DOCTYPE svg PUBLIC "-//W3C//DTD SVG 1.1//EN" "http://www.w3.org/Graphics/SVG/1.1/DTD/svg11.dtd"><svg t="1538215213200" class="icon" style="" viewBox="0 0 1024 1024" version="1.1" xmlns="http://www.w3.org/2000/svg" p-id="1400" xmlns:xlink="http://www.w3.org/1999/xlink" width="200" height="200"><defs><style type="text/css"></style></defs><path d="M770.463 201.297066 832.73738 201.297066 832.73738 325.845825 895.011759 325.845825 895.011759 637.217722 832.73738 637.217722 832.73738 824.04086 770.463 824.04086 770.463 637.217722 708.188621 637.217722 708.188621 325.845825 770.463 325.845825 770.463 201.297066Z" fill="#00caf8" p-id="1401"></path><path d="M272.267965 325.845825 334.542345 325.845825 334.542345 512.668963 396.816724 512.668963 396.816724 761.766481 334.542345 761.766481 334.542345 948.589619 272.267965 948.589619 272.267965 761.766481 209.993586 761.766481 209.993586 512.668963 272.267965 512.668963 272.267965 325.845825Z" fill="#00caf8" p-id="1402"></path><path d="M521.365483 14.473928 583.639862 14.473928 583.639862 201.297066 645.914242 201.297066 645.914242 699.492101 583.639862 699.492101 583.639862 1010.863998 521.365483 1010.863998 521.365483 699.492101 459.091103 699.492101 459.091103 201.297066 521.365483 201.297066 521.365483 14.473928Z" fill="#00caf8" p-id="1403"></path></svg>