<svg id="图层_1" data-name="图层 1" xmlns="http://www.w3.org/2000/svg" viewBox="0 0 358.96 400"><defs><style>.cls-1{fill:#404040;}</style></defs><title>未标题-3</title><circle class="cls-1" cx="32.32" cy="134.55" r="25"/><circle class="cls-1" cx="333.96" cy="94.09" r="25"/><circle class="cls-1" cx="333.96" cy="305.92" r="25"/><circle class="cls-1" cx="5" cy="154.55" r="5"/><circle class="cls-1" cx="32.32" cy="265.45" r="25"/><rect class="cls-1" x="957.88" y="942.7" width="114.6" height="114.6" rx="15" ry="15" transform="translate(183.93 -1224.95) rotate(45)"/><path class="cls-1" d="M1154.48,1120.22v-28.91h-20.31a150,150,0,0,1-258-34.85H852.83v-16H825.52v6.1h-4.88c21,88,100.11,153.45,194.54,153.45A199.67,199.67,0,0,0,1175,1120.22Z" transform="translate(-820.52 -800)"/><path class="cls-1" d="M1154.48,880.27h20.89A199.67,199.67,0,0,0,1015.18,800c-94.4,0-173.5,65.4-194.52,153.36h4.86v6.19h27.32V943.7h23.28A150,150,0,0,1,1134,908.45h20.49Z" transform="translate(-820.52 -800)"/><circle class="cls-1" cx="5" cy="245.45" r="5"/></svg>