<?xml version="1.0" encoding="utf-8"?>
<!-- Generator: Adobe Illustrator 21.0.0, SVG Export Plug-In . SVG Version: 6.00 Build 0)  -->
<svg version="1.1" id="图层_1" xmlns="http://www.w3.org/2000/svg" xmlns:xlink="http://www.w3.org/1999/xlink" x="0px" y="0px"
	 viewBox="0 0 1000 1000" style="enable-background:new 0 0 1000 1000;" xml:space="preserve">
<style type="text/css">
	.st0{fill:#C55A5A;}
	.st1{fill:#231815;}
	.st2{fill:none;}
</style>
<g>
	<g>
		<path class="st0" d="M451.2,141.2H241.6c-8.1,0-14.7,6.6-14.7,14.7v141.3c0,8.1,6.6,14.7,14.7,14.7h209.6
			c8.1,0,14.7-6.6,14.7-14.7V155.8C465.9,147.7,459.3,141.2,451.2,141.2L451.2,141.2z"/>
		<path class="st0" d="M175.7,243.6h-34.1c-9.4,0-17.1-7.6-17.1-17.1s7.6-17.1,17.1-17.1h34.1c9.4,0,17.1,7.6,17.1,17.1
			S185.2,243.6,175.7,243.6L175.7,243.6z"/>
		<path class="st0" d="M858.4,209.4H517.1c-9.4,0-17.1,7.6-17.1,17.1s7.6,17.1,17.1,17.1h341.3c9.4,0,17.1-7.6,17.1-17.1
			S867.8,209.4,858.4,209.4L858.4,209.4z"/>
	</g>
	<g>
		<path class="st0" d="M241.6,414.2c-8.1,0-14.7,6.6-14.7,14.7v141.3c0,8.1,6.6,14.7,14.7,14.7h209.6c8.1,0,14.7-6.6,14.7-14.7
			V428.9c0-8.1-6.6-14.7-14.7-14.7L241.6,414.2L241.6,414.2z"/>
		<path class="st0" d="M517.1,482.5c-9.4,0-17.1,7.6-17.1,17.1c0,9.4,7.6,17.1,17.1,17.1h341.3c9.4,0,17.1-7.6,17.1-17.1
			c0-9.4-7.6-17.1-17.1-17.1H517.1L517.1,482.5z"/>
		<path class="st0" d="M141.6,516.6c-9.4,0-17.1-7.6-17.1-17.1c0-9.4,7.6-17.1,17.1-17.1h34.1c9.4,0,17.1,7.6,17.1,17.1
			c0,9.4-7.6,17.1-17.1,17.1H141.6L141.6,516.6z"/>
	</g>
	<g>
		<path class="st0" d="M451.2,687.3H241.6c-8.1,0-14.7,6.6-14.7,14.7l0,141.3c0,8.1,6.6,14.7,14.7,14.7h209.6
			c8.1,0,14.7-6.6,14.7-14.7V702C465.9,693.9,459.3,687.3,451.2,687.3L451.2,687.3z"/>
		<path class="st0" d="M175.7,789.7h-34.1c-9.5,0-17.1-7.7-17.1-17.1c0-9.5,7.7-17.1,17.1-17.1h34.1c9.5,0,17.1,7.7,17.1,17.1
			C192.8,782.1,185.1,789.7,175.7,789.7L175.7,789.7z"/>
		<path class="st0" d="M858.4,755.6H517.1c-9.5,0-17.1,7.7-17.1,17.1c0,9.5,7.7,17.1,17.1,17.1h341.3c9.5,0,17.1-7.7,17.1-17.1
			C875.5,763.2,867.8,755.6,858.4,755.6L858.4,755.6z"/>
	</g>
	<path class="st1" d="M500,755.6"/>
	<rect x="124.6" y="141.1" class="st2" width="750.9" height="717.8"/>
</g>
</svg>
