<?xml version="1.0" encoding="utf-8"?>
<!-- Generator: Adobe Illustrator 21.0.0, SVG Export Plug-In . SVG Version: 6.00 Build 0)  -->
<svg version="1.1" id="图层_1" xmlns="http://www.w3.org/2000/svg" xmlns:xlink="http://www.w3.org/1999/xlink" x="0px" y="0px"
	 viewBox="0 0 840.2 298.7" style="enable-background:new 0 0 840.2 298.7;" xml:space="preserve">
<style type="text/css">
	.st0{fill:#4D83FF;}
</style>
<g>
	<g>
		<path class="st0" d="M3.9,192.5c8.1,41,28.6,77.7,57.3,105.8c7.2-21,12.8-42.7,16.5-65.1C50.1,224.8,25.1,210.8,3.9,192.5z"/>
	</g>
	<g>
		<path class="st0" d="M0,152.9c0,12.9,1.2,25.6,3.5,37.9c21.9,17.1,47.3,29.8,75.1,36.8c3.1-20.2,4.7-40.8,4.7-61.9
			c0-9.7-0.3-19.4-1.1-28.9c-27.8-7.7-53.1-21.2-74.7-39C2.6,115.3,0,133.8,0,152.9z"/>
	</g>
	<g>
		<g>
			<path class="st0" d="M90.6,164.8c0.5,8.4,0.8,16.8,0.8,25.3c0,37.6-5.1,74.1-14.7,108.6c38-36.9,61.6-88.6,61.6-145.8
				c0-6.8-0.3-13.6-1-20.2C124.1,146.2,108.3,157.2,90.6,164.8z"/>
		</g>
		<g>
			<path class="st0" d="M66.3,49.2c12.9,34.9,21.1,72,23.9,110.7c17.4-6.3,33.4-15.7,47-27.8C132,79.7,106.8,33,69.2,0
				C40.4,25.3,18.9,58.6,8,96.5c21.7,16,46.7,27.8,73.8,34.3C79.4,102.6,74.2,75.4,66.3,49.2z"/>
		</g>
	</g>
</g>
<path class="st0" d="M316.6,200.1c-0.4,0-0.8,0-1.1-0.1c-0.3-0.1-0.7-0.1-1.1-0.1c-0.8,0-2.7,0.8-5.7,2.4c-3,1.6-6.8,3.4-11.4,5.4
	s-9.8,3.7-15.7,5.2c-5.9,1.5-12,2.2-18.4,2.2c-8.4,0-16.5-1.1-24.2-3.2c-7.7-2.1-14.6-5.4-20.5-9.9s-10.6-10-14.1-16.7
	s-5.2-14.5-5.2-23.4c0-8.8,1.7-16.6,5.2-23.3s8.2-12.4,14.1-16.9s12.8-7.9,20.5-10.2s15.8-3.4,24.2-3.4c6.8,0,13,0.5,18.5,1.6
	s10.4,2.2,14.5,3.4s7.4,2.3,9.8,3.4c2.4,1.1,3.9,1.6,4.4,1.6c0.7,0,1.2-0.3,1.7-1s0.8-1.2,1.1-1.6l3,2.4l-15.6,24.2l-2-1.4
	c0-0.4,0-0.8-0.1-1.2s-0.2-0.9-0.3-1.4c-0.3-1.5-1.6-3-4-4.5s-5.4-2.9-8.9-4.1c-3.5-1.2-7.3-2.2-11.2-3c-3.9-0.8-7.6-1.2-10.9-1.2
	c-5.6,0-11,0.8-16.1,2.4c-5.1,1.6-9.6,3.9-13.4,7s-6.8,6.8-9.1,11.3c-2.3,4.5-3.4,9.6-3.4,15.3s1.1,10.8,3.4,15.3s5.3,8.2,9.1,11.3
	c3.8,3.1,8.3,5.4,13.4,7s10.5,2.4,16.1,2.4c4.3,0,8.7-0.5,13.4-1.5c4.7-1,8.9-2.3,12.8-3.8s7.1-3.3,9.7-5.2s3.9-3.8,3.9-5.5
	c0-0.9-0.3-1.7-0.8-2.4l2.8-1.6l13.2,21.2L316.6,200.1z"/>
<path class="st0" d="M416.6,109.3v3.6c-1.2,0-2.3,0.2-3.4,0.5s-1.6,1.2-1.6,2.5c0,0.8,1,2.7,2.9,5.7s4.2,6.4,6.8,10.2
	c2.6,3.8,5.3,7.7,8.1,11.7c2.8,4,5.1,7.4,6.8,10.2l23.4-32.2c1.1-1.6,1.9-2.9,2.6-3.8c0.7-0.9,1-1.8,1-2.6c0-0.9-0.6-1.5-1.9-1.8
	c-1.3-0.3-2.4-0.4-3.5-0.4v-3.6h35v3.6c-1.1,0-2.1,0.1-3,0.3s-1.9,0.7-2.9,1.4s-2.1,1.8-3.2,3.2c-1.1,1.4-2.5,3.3-4.1,5.7l-34,48.2
	v35.6c0,2.4,1.5,3.6,4.6,3.6v3.6h-31.6v-3.6c1.2,0,2.2-0.3,3-0.9c0.8-0.6,1.2-1.5,1.2-2.7v-35.6l-38.6-54c-0.9-1.3-2.4-2.5-4.3-3.4
	s-3.6-1.4-4.9-1.4v-3.6L416.6,109.3L416.6,109.3z"/>
<path class="st0" d="M616.2,109.3c7.3,0,14.2,1.1,20.5,3.2c6.3,2.1,11.8,5.4,16.5,9.7s8.3,9.8,11,16.4c2.7,6.6,4,14.4,4,23.3
	c0,8.9-1.3,16.7-4,23.3s-6.3,12.1-11,16.4c-4.7,4.3-10.2,7.6-16.5,9.7c-6.3,2.1-13.2,3.2-20.5,3.2h-66.4v-3.6c3.1,0,4.6-1.2,4.6-3.6
	v-90.8c0-2.4-1.5-3.6-4.6-3.6v-3.6L616.2,109.3L616.2,109.3z M608.2,197.3c6.3,0,11.7-0.5,16.4-1.6s8.5-3,11.6-5.7s5.4-6.4,6.9-10.9
	s2.3-10.3,2.3-17.2s-0.8-12.7-2.3-17.2s-3.8-8.2-6.9-10.9c-3.1-2.7-6.9-4.6-11.6-5.7c-4.7-1.1-10.1-1.6-16.4-1.6h-31v70.8
	L608.2,197.3L608.2,197.3z"/>
<path class="st0" d="M835.4,130.9c0-1.5-0.6-2.6-1.7-3.3c-1.1-0.7-3.1-1.1-5.9-1.1H763v24.8h39.2c2.7,0,4.7-0.4,6.2-1.1
	c1.5-0.7,2.2-2.6,2.2-5.7h3.6v31.2h-3.6c0-3.1-0.7-5-2.2-5.9s-3.5-1.3-6.2-1.3H763v27.6h66.8c2,0,3.6-0.5,4.9-1.4
	c1.3-0.9,1.9-2.2,1.9-3.8h3.6v27.4h-3.6c0-2-0.6-3.1-1.9-3.4c-1.3-0.3-2.9-0.4-4.9-0.4h-93.2v-3.6c0.9,0,1.8-0.3,2.5-0.9
	c0.7-0.6,1.1-1.5,1.1-2.7v-90.8c0-1.2-0.4-2.1-1.1-2.7c-0.7-0.6-1.6-0.9-2.5-0.9v-3.6h91.2c2.8,0,4.8-0.4,5.9-1.3
	c1.1-0.9,1.7-2,1.7-3.5h3.6v26.4H835.4z"/>
</svg>
