<?xml version="1.0" standalone="no"?><!DOCTYPE svg PUBLIC "-//W3C//DTD SVG 1.1//EN" "http://www.w3.org/Graphics/SVG/1.1/DTD/svg11.dtd"><svg t="1540020207073" class="icon" style="" viewBox="0 0 1024 1024" version="1.1" xmlns="http://www.w3.org/2000/svg" p-id="1494" xmlns:xlink="http://www.w3.org/1999/xlink" width="200" height="200"><defs><style type="text/css"></style></defs><path d="M654.72284445 383.84071111c11.65084445 0 20.38897778 0 32.03982222 2.91271111-26.2144-128.15928889-166.02453333-224.27875555-320.39822222-224.27875555-177.67537778 0-320.39822222 119.42115555-320.39822223 270.88213333 0 87.38133333 46.60337778 160.19911111 128.15928889 215.54062222L142.08568889 745.01688889l110.68302222-55.34151111c40.77795555 8.73813333 72.81777778 14.56355555 110.68302222 14.56355555h29.12711112c-5.82542222-20.38897778-8.73813333-43.69066667-8.73813334-66.99235555 0-139.81013333 119.42115555-253.40586667 270.88213334-253.40586667zM471.22204445 308.11022222c26.2144 0 40.77795555 17.47626667 40.77795555 43.69066667s-14.56355555 43.69066667-40.77795555 43.69066666c-23.30168889 0-46.60337778-17.47626667-46.60337778-43.69066666s23.30168889-43.69066667 46.60337778-43.69066667z m-203.88977778 87.38133333c-23.30168889 0-46.60337778-17.47626667-46.60337778-43.69066666s23.30168889-43.69066667 46.60337778-43.69066667c26.2144 0 40.77795555 17.47626667 40.77795555 43.69066667s-14.56355555 43.69066667-40.77795555 43.69066666z" fill="#2589FF" p-id="1495"></path><path d="M948.90666667 657.63555555c0 72.81777778-46.60337778 136.89742222-107.77031112 183.5008l23.3016889 78.6432-84.46862223-46.60337777c-32.03982222 8.73813333-61.16693333 14.56355555-93.20675555 14.56355555-145.63555555 0-262.144-104.8576-262.144-233.01688888s116.50844445-233.01688889 262.144-233.0168889c139.81013333 2.91271111 262.144 107.77031111 262.144 235.9296z m-352.43804445-58.25422222c20.38897778 0 32.03982222-14.56355555 32.03982223-29.12711111s-11.65084445-29.12711111-32.03982223-29.12711111c-11.65084445 0-26.2144 14.56355555-26.2144 29.12711111s11.65084445 29.12711111 26.2144 29.12711111z m174.76266667 0c20.38897778 0 32.03982222-14.56355555 32.03982222-29.12711111s-11.65084445-29.12711111-32.03982222-29.12711111c-11.65084445 0-26.2144 14.56355555-26.2144 29.12711111s11.65084445 29.12711111 26.2144 29.12711111z" fill="#A9CFFF" p-id="1496"></path></svg>